<svg width="1408" height="156" viewBox="0 0 1408 156" fill="none" xmlns="http://www.w3.org/2000/svg">
<path d="M59.3858 155.23C44.8073 155.23 32.8015 152.384 23.3684 146.692C13.9353 140.928 6.14582 131.394 0 118.088L17.6871 109.87C26.1912 129.224 39.8406 138.901 58.6354 138.901C69.5692 138.901 78.1805 136.375 84.4693 131.323C90.758 126.271 93.9024 119.191 93.9024 110.083C93.9024 100.62 90.4722 93.7893 83.6117 89.5913C76.7513 85.3932 66.1033 83.2942 51.6678 83.2942H44.0569V67.4982H51.6678C64.6026 67.4982 74.1429 65.3991 80.2887 61.2011C86.506 56.9319 89.6146 50.4214 89.6146 41.6695C89.6146 34.0561 87.0062 28.0792 81.7894 23.7388C76.6441 19.3273 69.2477 17.1216 59.6002 17.1216C50.5958 17.1216 43.0207 19.2206 36.8749 23.4186C30.7291 27.5455 25.8339 34.234 22.1893 43.4839L3.10864 36.9734C8.11105 24.6638 15.3288 15.5206 24.7619 9.54374C34.1951 3.56685 46.0579 0.57841 60.3505 0.57841C75.5007 0.57841 87.5779 4.13608 96.5823 11.2514C105.587 18.2956 110.089 27.8302 110.089 39.8551C110.089 48.8916 107.516 56.3627 102.371 62.2684C97.2254 68.1741 89.7933 72.2654 80.0743 74.5424C90.9367 76.1789 99.405 80.1279 105.479 86.3894C111.554 92.5797 114.591 100.371 114.591 109.763C114.591 123.638 109.624 134.703 99.6909 142.956C89.829 151.139 76.394 155.23 59.3858 155.23Z" fill="white"/>
<path d="M260.375 110.724C260.375 124.101 255.48 134.525 245.69 141.996C235.899 149.396 222.286 153.096 204.849 153.096H143.533V2.71301H198.417C233.863 2.71301 251.586 14.8802 251.586 39.2147C251.586 48.1089 249.084 55.58 244.082 61.628C239.08 67.6761 232.005 71.7318 222.857 73.7952C234.863 75.2183 244.118 79.2385 250.621 85.8557C257.124 92.4019 260.375 100.691 260.375 110.724ZM231.004 41.6695C231.004 33.558 228.217 27.759 222.643 24.2725C217.069 20.786 208.994 19.0427 198.417 19.0427H164.008V66.6443H198.417C209.351 66.6443 217.498 64.6165 222.857 60.5607C228.289 56.4338 231.004 50.1367 231.004 41.6695ZM239.687 109.123C239.687 91.4057 227.181 82.5471 202.169 82.5471H164.008V136.766H203.777C216.283 136.766 225.394 134.454 231.111 129.829C236.828 125.204 239.687 118.302 239.687 109.123Z" fill="white"/>
<path d="M300.252 155.23C295.821 155.23 291.176 154.554 286.317 153.202C281.529 151.851 277.491 150.036 274.204 147.759L282.886 132.39C289.604 136.588 295.535 138.687 300.681 138.687C304.325 138.687 307.362 138.011 309.792 136.659C312.293 135.236 314.795 132.853 317.296 129.508C319.797 126.093 324.692 117.768 331.981 104.534L270.559 2.71301H293.927L342.058 86.3894L383.22 2.71301H405.195L343.344 119.156C337.27 130.54 332.339 138.403 328.551 142.743C324.764 147.083 320.619 150.25 316.117 152.242C311.686 154.234 306.398 155.23 300.252 155.23Z" fill="white"/>
<path d="M422.239 2.71301H442.713V68.7789C448.073 68.7789 452.361 68.0674 455.577 66.6443C458.793 65.1501 462.151 62.4463 465.653 58.5328C469.155 54.5483 474.729 46.7925 482.375 35.2657L504.35 2.71301H525.789L495.453 46.4723C486.091 59.9203 479.695 67.8895 476.265 70.3799L530.827 153.096H507.03L461.258 80.1991C459.471 81.0529 456.613 81.9423 452.682 82.8673C448.823 83.7923 445.5 84.2548 442.713 84.2548V153.096H422.239V2.71301Z" fill="white"/>
<path d="M728.172 110.724C728.172 124.101 723.277 134.525 713.487 141.996C703.696 149.396 690.083 153.096 672.646 153.096H611.33V2.71301H666.214C701.66 2.71301 719.382 14.8802 719.382 39.2147C719.382 48.1089 716.881 55.58 711.879 61.628C706.876 67.6761 699.802 71.7318 690.654 73.7952C702.66 75.2183 711.915 79.2385 718.418 85.8557C724.921 92.4019 728.172 100.691 728.172 110.724ZM698.801 41.6695C698.801 33.558 696.014 27.759 690.44 24.2725C684.866 20.786 676.79 19.0427 666.214 19.0427H631.804V66.6443H666.214C677.148 66.6443 685.295 64.6165 690.654 60.5607C696.085 56.4338 698.801 50.1367 698.801 41.6695ZM707.484 109.123C707.484 91.4057 694.978 82.5471 669.966 82.5471H631.804V136.766H671.574C684.08 136.766 693.191 134.454 698.908 129.829C704.625 125.204 707.484 118.302 707.484 109.123Z" fill="white"/>
<path d="M920.801 153.096V19.8966H839.119V153.096H818.645V2.71301H941.275V153.096H920.801Z" fill="white"/>
<path d="M1118.9 77.2106C1118.9 92.9355 1115.86 106.704 1109.78 118.515C1103.78 130.327 1095.13 139.399 1083.84 145.731C1072.55 152.064 1059.22 155.23 1043.86 155.23C1028.35 155.23 1014.95 152.1 1003.66 145.838C992.443 139.577 983.867 130.54 977.936 118.729C972.004 106.846 969.038 93.0067 969.038 77.2106C969.038 53.1608 975.649 34.3763 988.869 20.8571C1002.09 7.26683 1020.49 0.47168 1044.07 0.47168C1059.44 0.47168 1072.77 3.53128 1084.06 9.65047C1095.35 15.6985 1103.96 24.5215 1109.89 36.1195C1115.89 47.7175 1118.9 61.4146 1118.9 77.2106ZM1097.99 77.2106C1097.99 58.4973 1093.28 43.8041 1083.84 33.1311C1074.48 22.4581 1061.23 17.1216 1044.07 17.1216C1026.78 17.1216 1013.42 22.3869 1003.98 32.9176C994.551 43.4483 989.834 58.2127 989.834 77.2106C989.834 96.0663 994.586 111.044 1004.09 122.144C1013.67 133.173 1026.92 138.687 1043.86 138.687C1061.3 138.687 1074.66 133.351 1083.95 122.678C1093.31 111.933 1097.99 96.7778 1097.99 77.2106Z" fill="white"/>
<path d="M1233.17 19.7898H1188.36L1183.11 59.0665C1179.46 87.3855 1175.92 107.771 1172.49 120.223C1169.13 132.675 1164.88 141.569 1159.74 146.905C1154.59 152.171 1147.37 154.803 1138.08 154.803C1133.94 154.803 1130.87 154.448 1128.87 153.736V137.513C1130.22 138.011 1132.22 138.26 1134.87 138.26C1138.66 138.26 1141.73 137.122 1144.09 134.845C1146.52 132.497 1148.77 128.655 1150.84 123.318C1152.91 117.91 1154.99 109.941 1157.06 99.4105C1159.13 88.8086 1161.2 75.7875 1163.27 60.3473C1165.35 44.8358 1167.88 25.6244 1170.89 2.71301H1253.1V153.096H1233.17V19.7898Z" fill="white"/>
<path d="M1289.01 153.096V2.71301H1403.61V19.3629H1309.49V67.6049H1397.17V84.0413H1309.49V136.446H1408V153.096H1289.01Z" fill="white"/>
</svg>
