<svg width="1089" height="613" viewBox="0 0 1089 613" fill="none" xmlns="http://www.w3.org/2000/svg">
<path d="M0.00208287 240.979C0.00208287 240.979 334.516 0 533.42 0L256.844 407.736C256.844 407.736 607.294 45.1634 948.268 0L445.88 314.065L1088 0L1018.38 87.4695C1018.38 87.4695 1088 70.4237 1088 216.336C1088 362.248 1018.38 453.785 798.637 612.328L910.39 488.526L756.961 612.328L870.629 480.961L715.284 612.328L849.791 458.201C849.791 458.201 667.928 612.328 588.373 612.328C508.818 612.328 620.571 431.674 844.111 281.996L148.889 612.328C148.889 612.328 0.00208287 589.624 0.00208287 240.979Z" fill="url(#paint0_linear)"/>
<defs>
<linearGradient id="paint0_linear" x1="544.001" y1="0" x2="544.001" y2="612.328" gradientUnits="userSpaceOnUse">
<stop stop-color="#FF8181"/>
<stop offset="1" stop-color="#0500FF"/>
</linearGradient>
</defs>
</svg>
