<svg width="1089" height="614" viewBox="0 0 1089 614" fill="none" xmlns="http://www.w3.org/2000/svg">
<path d="M1088 613.81C1088 613.81 801.81 195.612 622.596 25.3828C622.596 25.3828 982.316 276.002 1088 457.27C1088 457.27 917.26 84.9739 639.303 0.0308432L549.696 25.414L952.207 528.181C952.207 528.181 425.142 107.488 268.705 53.7283C112.238 -0.000338104 0.00210094 0 0.00210094 0C0.00210094 0 47.2096 394.218 589.45 343.764C589.45 343.764 181.861 389.227 0.00210094 469.618C0.00210094 469.618 346.411 388.044 598.555 373.793C598.555 373.793 -145.707 613.81 98.8343 613.81C343.376 613.81 721.577 443.082 721.577 443.082L865.605 613.81C865.605 613.81 955.783 586.275 1012.85 539.687L1088 613.81Z" fill="url(#paint0_linear)"/>
<defs>
<linearGradient id="paint0_linear" x1="544.001" y1="0" x2="544.001" y2="613.81" gradientUnits="userSpaceOnUse">
<stop stop-color="#00FFD1"/>
<stop offset="1" stop-color="#8525FF"/>
</linearGradient>
</defs>
</svg>
