<svg width="1088" height="613" viewBox="0 0 1088 613" fill="none" xmlns="http://www.w3.org/2000/svg">
<path d="M0 94.4475C0 94.4475 74.0813 0 479.67 0C885.258 0 1088 111.193 1088 111.193C1088 111.193 797.578 43.9334 614.743 43.9334C614.743 43.9334 974.254 209.811 1088 495.625L730.644 217.195L671.766 612.296L526.392 144.653C526.392 144.653 220.274 212.777 70.9986 386.039L521.051 153.074C521.051 153.074 544.331 473.977 381.326 612.327L0 436.398C0 436.398 78.5942 152.068 284.28 109.123L0 172.798C0 172.798 32.8933 125.405 127.346 91.3579L0 94.4475Z" fill="url(#paint0_linear)"/>
<defs>
<linearGradient id="paint0_linear" x1="543.999" y1="0" x2="543.999" y2="612.327" gradientUnits="userSpaceOnUse">
<stop stop-color="#00FFD1"/>
<stop offset="1" stop-color="#8525FF"/>
</linearGradient>
</defs>
</svg>
