<svg width="1088" height="614" viewBox="0 0 1088 614" fill="none" xmlns="http://www.w3.org/2000/svg">
<path d="M315.395 238.777L222.479 214.267L5.98302e-05 396.269L174.375 150.566L2.22033e-05 253.976L208.962 7.70253e-08C208.962 7.70253e-08 263.711 284.197 269.008 127.715C272.875 13.498 485.128 -0.00122229 667.67 -5.83695e-05C815.624 -5.81753e-05 979.544 43.4519 1088 102.17C966.261 102.17 966.178 84.0529 787.575 119.13C564.321 162.975 414.934 375.587 749.609 171.248C1017.35 7.7777 1088 243.222 1088 396.268C1000.54 531.879 850.215 613.81 688.85 613.81L573.398 613.81L922.104 150.566C804.906 205.165 497.317 613.81 375.992 613.81C300.771 613.81 383.792 485.958 498.039 379.784L126.327 613.81L467.961 296.581L99.9163 455.419L315.395 238.777Z" fill="url(#paint0_linear)"/>
<defs>
<linearGradient id="paint0_linear" x1="543.999" y1="-4.75579e-05" x2="543.999" y2="613.81" gradientUnits="userSpaceOnUse">
<stop stop-color="#FF5151"/>
<stop offset="1" stop-color="#48D3FF"/>
</linearGradient>
</defs>
</svg>
