<svg width="1088" height="612" viewBox="0 0 1088 612" fill="none" xmlns="http://www.w3.org/2000/svg">
<path d="M0.0356765 0C0.0356765 0 293.793 79.0301 292.26 150.639L441.599 1.04355e-10L335.814 200.483L520.902 1.04355e-10L384.038 223.818C384.038 223.818 575.363 1.04355e-10 819.544 1.04355e-10C1063.73 1.04355e-10 1088 83.7041 1088 83.7041C1088 83.7041 1073.06 94.5864 995.294 63.4739L1088 122.595L985.635 84.8458L1088 154.385L980.324 108.68C980.324 108.68 1088 197.094 1088 233.95C1088 270.807 1029.79 279.977 958.547 208.654C958.547 208.654 1083.93 571.407 1088 611.761C1088 611.761 1044.55 608.371 1039.42 531.268C1039.42 531.268 1034.29 611.761 835.262 611.761C636.239 611.761 496.309 476 496.309 476L658.087 541.543L512.989 448.991L676.051 517.103L524.537 402.714L688.882 483.671L541.217 357.723C541.217 357.723 692.731 342.309 990.589 536.37L558.575 225.352C558.575 225.352 548.132 455.163 448.87 537.476C349.608 619.789 265.494 611.725 230.101 611.725C194.709 611.725 0 570.444 0 434.148C0 297.852 218.095 319.118 218.095 319.118L0.0350053 155.376L435.968 388.728C436.003 388.764 41.5226 112.034 0.0356765 0Z" fill="url(#paint0_linear)"/>
<defs>
<linearGradient id="paint0_linear" x1="543.999" y1="0" x2="543.999" y2="611.941" gradientUnits="userSpaceOnUse">
<stop stop-color="#E8D730"/>
<stop offset="1" stop-color="#FF00F5"/>
</linearGradient>
</defs>
</svg>
