<svg width="1088" height="613" viewBox="0 0 1088 613" fill="none" xmlns="http://www.w3.org/2000/svg">
<path d="M1088 240.979C1088 240.979 753.484 0 554.58 0L831.156 407.736C831.156 407.736 480.706 45.1634 139.732 0L642.12 314.065L0 0L69.6227 87.4695C69.6227 87.4695 0 70.4237 0 216.336C0 362.248 69.6212 453.785 289.363 612.328L177.61 488.526L331.039 612.328L217.371 480.961L372.716 612.328L238.209 458.201C238.209 458.201 420.072 612.328 499.627 612.328C579.182 612.328 467.429 431.674 243.889 281.996L939.111 612.328C939.111 612.328 1088 589.624 1088 240.979Z" fill="url(#paint0_linear)"/>
<defs>
<linearGradient id="paint0_linear" x1="543.999" y1="0" x2="543.999" y2="612.328" gradientUnits="userSpaceOnUse">
<stop stop-color="#FF8181"/>
<stop offset="1" stop-color="#0500FF"/>
</linearGradient>
</defs>
</svg>
