<svg width="1089" height="613" viewBox="0 0 1089 613" fill="none" xmlns="http://www.w3.org/2000/svg">
<path d="M1055.07 375.258C1055.07 375.258 926.252 0.00969771 551.033 0.00969771L586.826 119.37L267.227 0.00969771L489.515 111.774L100.213 0L284.576 143.377L0.0405085 0.00969778C0.0405085 0.00969778 28.9443 120.823 115.045 167.046C115.045 167.046 0.00208077 147.437 0.00208077 218.869C0.00208077 290.301 155.314 222.056 155.314 222.056L0.0308614 371.547C0.0308614 371.547 78.9255 612.311 231.703 612.311C231.703 612.311 135.871 399.052 165.036 306.161C165.036 306.161 244.201 612.311 481.686 612.311C719.171 612.311 485.855 527.035 485.855 527.035L954.216 612.311L194.21 262.292L1055.07 612.302L310.234 201.197L1088 553.591C1088 553.591 972.669 412.625 885.041 412.625L1055.07 431.521L338.88 134.174L1055.07 375.258Z" fill="url(#paint0_linear)"/>
<defs>
<linearGradient id="paint0_linear" x1="544.001" y1="0" x2="544.001" y2="612.311" gradientUnits="userSpaceOnUse">
<stop stop-color="#174AFF"/>
<stop offset="1" stop-color="#FF9356"/>
</linearGradient>
</defs>
</svg>
