<svg width="1088" height="613" viewBox="0 0 1088 613" fill="none" xmlns="http://www.w3.org/2000/svg">
<path d="M0 612.328C0 612.328 74.8441 462.009 297.12 392.54C297.12 392.54 55.2353 341.411 0 281.112C0 281.112 158.364 36.0884 456.406 0.00118806L563.098 333.56L569.684 35.9894L645.862 329.601C645.862 329.601 674.909 83.1393 674.909 0C674.909 0 960.525 74.2855 1087.97 306.18C1087.97 306.18 884.536 232.62 764.563 205.11L1088 612.327C1088 612.327 841.632 510.498 725.441 273.26C725.441 273.26 655.8 612.328 231.461 612.328C231.461 612.328 435.876 408.835 439.848 399.995L417.125 381.126L0 612.328Z" fill="url(#paint0_linear)"/>
<defs>
<linearGradient id="paint0_linear" x1="543.999" y1="0" x2="543.999" y2="612.328" gradientUnits="userSpaceOnUse">
<stop stop-color="#E8D730"/>
<stop offset="1" stop-color="#FF00F5"/>
</linearGradient>
</defs>
</svg>
