<svg width="1089" height="614" viewBox="0 0 1089 614" fill="none" xmlns="http://www.w3.org/2000/svg">
<path d="M772.605 238.777L865.521 214.267L1088 396.269L913.625 150.566L1088 253.976L879.038 7.70253e-08C879.038 7.70253e-08 824.289 284.197 818.992 127.715C815.125 13.498 602.872 -0.00122229 420.33 -5.83695e-05C272.376 -5.81753e-05 108.456 43.4519 0.00206626 102.17C121.739 102.17 121.822 84.0529 300.425 119.13C523.679 162.975 673.066 375.587 338.391 171.248C70.6514 7.7777 0.00205393 243.222 0.00204055 396.268C87.4575 531.879 237.785 613.81 399.15 613.81L514.602 613.81L165.896 150.566C283.094 205.165 590.683 613.81 712.008 613.81C787.229 613.81 704.208 485.958 589.961 379.784L961.673 613.81L620.039 296.581L988.084 455.419L772.605 238.777Z" fill="url(#paint0_linear)"/>
<defs>
<linearGradient id="paint0_linear" x1="544.001" y1="-4.75579e-05" x2="544.001" y2="613.81" gradientUnits="userSpaceOnUse">
<stop stop-color="#174AFF"/>
<stop offset="1" stop-color="#FF9356"/>
</linearGradient>
</defs>
</svg>
