<svg width="1088" height="613" viewBox="0 0 1088 613" fill="none" xmlns="http://www.w3.org/2000/svg">
<path d="M0 612.327C0 612.327 286.19 195.139 465.404 25.3215C465.404 25.3215 105.684 275.335 0 456.166C0 456.166 170.74 84.7686 448.697 0.0307687L538.304 25.3526L135.793 526.905C135.793 526.905 662.858 107.228 819.295 53.5985C975.762 -0.000337288 1088 0 1088 0C1088 0 1040.79 393.266 498.55 342.933C498.55 342.933 906.139 388.287 1088 468.483C1088 468.483 741.589 387.106 489.445 372.89C489.445 372.89 1233.71 612.327 989.166 612.327C744.624 612.327 366.423 442.012 366.423 442.012L222.395 612.327C222.395 612.327 132.217 584.859 75.1533 538.384L0 612.327Z" fill="url(#paint0_linear)"/>
<defs>
<linearGradient id="paint0_linear" x1="543.999" y1="0" x2="543.999" y2="612.327" gradientUnits="userSpaceOnUse">
<stop stop-color="#FF5151"/>
<stop offset="1" stop-color="#48D3FF"/>
</linearGradient>
</defs>
</svg>
